<svg width="21" height="12" viewBox="0 0 21 12" fill="none" xmlns="http://www.w3.org/2000/svg">
<path d="M15.6824 0.984375C17.0574 0.984375 18.2292 1.48438 19.198 2.48438C20.1667 3.45312 20.6511 4.625 20.6511 6C20.6511 7.375 20.1667 8.5625 19.198 9.5625C18.2292 10.5312 17.0574 11.0156 15.6824 11.0156H11.6511V9.09375H15.6824C16.5261 9.09375 17.2449 8.79688 17.8386 8.20312C18.4636 7.57812 18.7761 6.84375 18.7761 6C18.7761 5.15625 18.4636 4.4375 17.8386 3.84375C17.2449 3.21875 16.5261 2.90625 15.6824 2.90625H11.6511V0.984375H15.6824ZM6.68237 6.98438V5.01562H14.6511V6.98438H6.68237ZM3.448 3.84375C2.85425 4.4375 2.55737 5.15625 2.55737 6C2.55737 6.84375 2.85425 7.57812 3.448 8.20312C4.073 8.79688 4.80737 9.09375 5.65112 9.09375H9.68237V11.0156H5.65112C4.27612 11.0156 3.10425 10.5312 2.1355 9.5625C1.16675 8.5625 0.682373 7.375 0.682373 6C0.682373 4.625 1.16675 3.45312 2.1355 2.48438C3.10425 1.48438 4.27612 0.984375 5.65112 0.984375H9.68237V2.90625H5.65112C4.80737 2.90625 4.073 3.21875 3.448 3.84375Z" fill="#0094FF"/>
</svg>