<svg width="136" height="28" viewBox="0 0 136 28" fill="none" xmlns="http://www.w3.org/2000/svg">
<path d="M31.6806 6.97119H38.8217C39.1798 6.97119 39.5826 6.97526 40.0302 6.9834C40.4859 6.99154 40.962 7.01595 41.4584 7.05664C41.9549 7.08919 42.4594 7.14209 42.9721 7.21533C43.4929 7.28044 43.9975 7.37402 44.4858 7.49609C44.9741 7.61003 45.4298 7.75651 45.853 7.93555C46.2843 8.10645 46.6586 8.31396 46.976 8.55811C47.3015 8.80225 47.5579 9.09115 47.7451 9.4248C47.9322 9.75033 48.0258 10.1247 48.0258 10.5479C48.0258 11.1257 47.8671 11.6424 47.5497 12.0981C47.2324 12.5539 46.8051 12.9526 46.268 13.2944C45.739 13.6281 45.1246 13.9129 44.4247 14.1489C43.7249 14.3768 42.9925 14.5518 42.2275 14.6738C43.0413 14.804 43.7574 14.9668 44.3759 15.1621C44.9944 15.3574 45.5315 15.5771 45.9872 15.8213C46.4511 16.0573 46.8377 16.3055 47.1469 16.5659C47.4643 16.8263 47.7247 17.0827 47.9282 17.335C48.4083 17.929 48.6809 18.5597 48.746 19.2271C48.746 19.9676 48.6118 20.6064 48.3432 21.1436C48.0828 21.6807 47.7288 22.1364 47.2812 22.5107C46.8417 22.877 46.3331 23.174 45.7553 23.4019C45.1775 23.6297 44.5753 23.8088 43.9487 23.939C43.322 24.061 42.6913 24.1424 42.0566 24.1831C41.4218 24.2238 40.8277 24.2441 40.2744 24.2441C40.0058 24.2441 39.7576 24.2441 39.5297 24.2441C39.3019 24.2523 39.0455 24.2523 38.7607 24.2441C38.4759 24.2441 38.1341 24.2401 37.7353 24.2319C37.3447 24.2238 36.8523 24.2075 36.2582 24.1831C35.6723 24.1668 34.9602 24.1343 34.122 24.0854C33.2919 24.0448 32.2869 23.9919 31.1069 23.9268L31.1557 23.646H34.5248V7.42285H31.6806V6.97119ZM38.9316 14.9058L38.7973 23.7803C39.0089 23.7965 39.2368 23.8047 39.4809 23.8047C39.7332 23.8047 39.9977 23.8047 40.2744 23.8047C40.9335 23.7559 41.5113 23.6419 42.0078 23.4629C42.5123 23.2839 42.9314 23.0194 43.2651 22.6694C43.6069 22.3114 43.8673 21.8556 44.0463 21.3022C44.2335 20.7407 44.3434 20.0571 44.3759 19.2515C44.3759 18.4784 44.2905 17.8192 44.1196 17.2739C43.9568 16.7205 43.6679 16.2689 43.2529 15.9189C42.8378 15.569 42.2804 15.3127 41.5805 15.1499C40.8806 14.9871 39.9977 14.9058 38.9316 14.9058ZM43.8022 10.7554C43.794 10.7635 43.79 10.6903 43.79 10.5356C43.79 10.3729 43.7696 10.1694 43.7289 9.92529C43.6883 9.68115 43.615 9.41667 43.5092 9.13184C43.4034 8.84701 43.2407 8.58252 43.0209 8.33838C42.8093 8.0861 42.5286 7.87858 42.1786 7.71582C41.8287 7.55306 41.3933 7.47168 40.8725 7.47168C40.5226 7.47168 40.1889 7.46354 39.8715 7.44727C39.5623 7.43099 39.2815 7.42285 39.0292 7.42285L38.9316 14.4053C39.0943 14.4053 39.253 14.4093 39.4077 14.4175C39.5704 14.4256 39.725 14.4378 39.8715 14.4541C40.3435 14.4541 40.7993 14.4093 41.2387 14.3198C41.6863 14.2303 42.0891 14.0553 42.4472 13.7949C42.8134 13.5345 43.1145 13.1642 43.3505 12.6841C43.5947 12.1958 43.7452 11.5529 43.8022 10.7554Z" fill="#0094FF"/>
<path d="M60.5258 17.8721C60.5258 18.3034 60.3875 18.694 60.1108 19.0439C59.8341 19.3857 59.476 19.6787 59.0366 19.9229C58.6052 20.167 58.121 20.3623 57.5839 20.5088C57.055 20.6471 56.5341 20.7204 56.0214 20.7285C55.9889 20.7285 55.9156 20.7244 55.8017 20.7163C55.6878 20.7082 55.5494 20.6838 55.3867 20.6431C55.2239 20.5942 55.0408 20.521 54.8373 20.4233C54.6339 20.3257 54.4304 20.1833 54.227 19.9961C54.2514 20.7204 54.3165 21.3429 54.4223 21.8638C54.5362 22.3765 54.6827 22.7996 54.8618 23.1333C55.0489 23.4588 55.2646 23.6989 55.5087 23.8535C55.761 24 56.0336 24.0732 56.3266 24.0732C56.4975 24.0732 56.7254 24.0163 57.0102 23.9023C57.3032 23.7884 57.6043 23.6134 57.9135 23.3774C58.2309 23.1414 58.5401 22.8403 58.8412 22.4741C59.1424 22.1079 59.3946 21.6685 59.5981 21.1558L59.9521 20.2524L60.3915 20.3989L60.1962 20.9482C60.0172 21.4284 59.7812 21.8841 59.4882 22.3154C59.1953 22.7467 58.8535 23.1333 58.4628 23.4751C58.0803 23.8088 57.6531 24.0773 57.1811 24.2808C56.7091 24.4923 56.2045 24.6144 55.6674 24.647C54.7315 24.6144 53.9381 24.4476 53.287 24.1465C52.636 23.8454 52.107 23.4629 51.7001 22.999C51.2932 22.5352 50.9962 22.0184 50.809 21.4487C50.63 20.8791 50.5405 20.3053 50.5405 19.7275C50.5405 19.3451 50.5974 18.93 50.7114 18.4824C50.8334 18.0267 51.0084 17.571 51.2363 17.1152C51.4641 16.6514 51.7408 16.2038 52.0663 15.7725C52.4 15.3411 52.7744 14.9587 53.1894 14.625C53.6126 14.2913 54.0724 14.0269 54.5688 13.8315C55.0733 13.6281 55.6145 13.5264 56.1923 13.5264C56.7213 13.5426 57.1933 13.624 57.6083 13.7705C58.0315 13.9089 58.4018 14.096 58.7192 14.332C59.0447 14.5599 59.3214 14.8203 59.5493 15.1133C59.7771 15.4062 59.9643 15.7114 60.1108 16.0288C60.2573 16.3381 60.3631 16.6554 60.4282 16.981C60.4933 17.2983 60.5258 17.5954 60.5258 17.8721ZM55.997 13.978C55.7366 13.9943 55.4925 14.1408 55.2646 14.4175C55.0449 14.6942 54.8536 15.0726 54.6909 15.5527C54.5362 16.0247 54.4142 16.5822 54.3246 17.2251C54.2351 17.868 54.1904 18.5597 54.1904 19.3003C54.3938 19.5363 54.5973 19.7194 54.8007 19.8496C55.0042 19.9798 55.1913 20.0775 55.3622 20.1426C55.5331 20.1995 55.6756 20.2362 55.7895 20.2524C55.9034 20.2687 55.9726 20.2769 55.997 20.2769C56.3144 20.2687 56.5748 20.1995 56.7783 20.0693C56.9898 19.9391 57.1526 19.7601 57.2665 19.5322C57.3886 19.3044 57.4741 19.0317 57.5229 18.7144C57.5717 18.397 57.5961 18.043 57.5961 17.6523C57.5961 17.1641 57.5636 16.7002 57.4985 16.2607C57.4415 15.8132 57.3479 15.4225 57.2177 15.0889C57.0956 14.7471 56.9329 14.4785 56.7294 14.2832C56.526 14.0798 56.2818 13.978 55.997 13.978Z" fill="#0094FF"/>
<path d="M66.373 24.4517C65.8766 24.4517 65.3964 24.3866 64.9326 24.2563C64.4687 24.1343 64.0455 23.9593 63.663 23.7314C63.2887 23.4954 62.9672 23.2188 62.6987 22.9014C62.4383 22.5758 62.2633 22.2178 62.1738 21.8271C62.1738 21.5993 62.2063 21.3877 62.2714 21.1924C62.3447 20.9971 62.4423 20.8262 62.5644 20.6797C62.6946 20.5332 62.8452 20.4193 63.0161 20.3379C63.187 20.2484 63.3701 20.2036 63.5654 20.2036C63.8014 20.2036 64.0333 20.2728 64.2612 20.4111C64.489 20.5495 64.6843 20.7611 64.8471 21.0459C64.9773 21.2819 65.0709 21.5179 65.1279 21.7539C65.193 21.9899 65.2418 22.2178 65.2744 22.4375C65.315 22.6572 65.3476 22.8647 65.372 23.0601C65.4046 23.2472 65.4534 23.41 65.5185 23.5483C65.5917 23.6867 65.6935 23.7965 65.8237 23.8779C65.9539 23.9593 66.137 24 66.373 24C66.7555 24 67.0851 23.9634 67.3618 23.8901C67.6384 23.8169 67.8663 23.7152 68.0453 23.585C68.2244 23.4548 68.3546 23.3083 68.436 23.1455C68.5255 22.9827 68.5703 22.8078 68.5703 22.6206C68.5703 22.409 68.5133 22.1934 68.3994 21.9736C68.2854 21.7539 68.1186 21.5505 67.8989 21.3633C67.6791 21.168 67.4024 20.993 67.0688 20.8384C66.7433 20.6838 66.3608 20.5698 65.9213 20.4966C65.4249 20.4152 64.9651 20.2931 64.5419 20.1304C64.1269 19.9676 63.7648 19.752 63.4555 19.4834C63.1463 19.2067 62.9021 18.873 62.7231 18.4824C62.5522 18.0837 62.4667 17.6076 62.4667 17.0542C62.4667 16.5008 62.5888 16.0125 62.8329 15.5894C63.0852 15.158 63.4067 14.7959 63.7973 14.5029C64.1879 14.21 64.6274 13.9862 65.1157 13.8315C65.6039 13.6769 66.0882 13.5996 66.5683 13.5996C66.7717 13.5996 67.0078 13.6159 67.2763 13.6484C67.5449 13.6729 67.8175 13.7217 68.0942 13.7949C68.379 13.8682 68.6598 13.9658 68.9365 14.0879C69.2132 14.21 69.4573 14.3646 69.6689 14.5518C69.8886 14.7389 70.0636 14.9627 70.1938 15.2231C70.324 15.4836 70.3891 15.7847 70.3891 16.1265C70.3891 16.3218 70.3525 16.5049 70.2792 16.6758C70.2141 16.8467 70.1205 16.9972 69.9985 17.1274C69.8845 17.2495 69.7462 17.3472 69.5834 17.4204C69.4288 17.4937 69.2661 17.5303 69.0952 17.5303C68.7045 17.5303 68.4075 17.4448 68.204 17.2739C68.0087 17.103 67.8663 16.8874 67.7768 16.627C67.6873 16.3665 67.6262 16.0898 67.5937 15.7969C67.5693 15.4958 67.5286 15.215 67.4716 14.9546C67.4147 14.6942 67.3211 14.4785 67.1909 14.3076C67.0688 14.1367 66.8613 14.0513 66.5683 14.0513C66.0149 14.092 65.5795 14.2262 65.2621 14.4541C64.9529 14.6738 64.7983 14.9709 64.7983 15.3452C64.7983 15.5894 64.8512 15.8294 64.957 16.0654C65.0628 16.2933 65.2133 16.5049 65.4086 16.7002C65.6121 16.8955 65.8562 17.0664 66.1411 17.2129C66.4259 17.3512 66.7433 17.4489 67.0932 17.5059C67.5733 17.5872 68.0331 17.7174 68.4726 17.8965C68.912 18.0755 69.2986 18.3034 69.6323 18.5801C69.9741 18.8568 70.2426 19.1823 70.4379 19.5566C70.6414 19.9229 70.7431 20.3298 70.7431 20.7773C70.7431 21.2249 70.6251 21.6685 70.3891 22.1079C70.1612 22.5474 69.8479 22.9421 69.4492 23.292C69.0504 23.6338 68.5865 23.9105 68.0576 24.1221C67.5286 24.3418 66.9671 24.4517 66.373 24.4517Z" fill="#0094FF"/>
<path d="M72.2446 14.6006L73.4531 14.5762C73.4938 13.9495 73.5385 13.266 73.5873 12.5254C73.6362 11.7767 73.7053 10.9425 73.7949 10.0229H77.6767L77.2739 14.4785L79.4467 14.4297V14.8691L77.225 14.9302C77.1111 16.1346 76.989 17.3472 76.8588 18.5679C76.7368 19.7886 76.6757 21.0418 76.6757 22.3276C76.6757 22.9543 76.7205 23.4303 76.81 23.7559C76.9077 24.0814 77.0704 24.2645 77.2983 24.3052H77.4203C77.8191 24.2563 78.1772 24.0692 78.4946 23.7437C78.6248 23.6053 78.755 23.4303 78.8852 23.2188C79.0154 22.999 79.1293 22.7345 79.227 22.4253C79.3246 22.1079 79.402 21.7376 79.4589 21.3145C79.5159 20.8831 79.5444 20.3867 79.5444 19.8252H79.996C79.996 20.4437 79.9594 20.9889 79.8862 21.4609C79.8211 21.9248 79.7275 22.3317 79.6054 22.6816C79.4833 23.0234 79.345 23.3123 79.1904 23.5483C79.0357 23.7843 78.8771 23.9797 78.7143 24.1343C78.3318 24.4923 77.9005 24.6958 77.4203 24.7446C76.8181 24.7446 76.2932 24.6795 75.8456 24.5493C75.4062 24.4272 75.0278 24.2523 74.7104 24.0244C74.4011 23.8047 74.1448 23.5443 73.9413 23.2432C73.746 22.9339 73.5914 22.6003 73.4775 22.2422C73.3717 21.8841 73.2984 21.5057 73.2578 21.1069C73.2171 20.7082 73.1967 20.3053 73.1967 19.8984C73.1967 19.1416 73.2211 18.3726 73.27 17.5913C73.3188 16.8101 73.3717 15.9556 73.4286 15.0278L72.2446 15.0522V14.6006Z" fill="#0094FF"/>
<path d="M83.8901 23.5972H86.7343L86.8076 7.27637H86.5634V7.30078C85.7171 7.36589 84.9521 7.64665 84.2685 8.14307C83.9755 8.35465 83.6907 8.62321 83.414 8.94873C83.1373 9.27425 82.885 9.67708 82.6572 10.1572C82.4374 10.6374 82.2543 11.1989 82.1078 11.8418C81.9614 12.4847 81.88 13.2293 81.8637 14.0757H81.412L81.6074 6.67822L96.6342 7.12988L96.5121 15.0522H96.0605C96.0686 14.0675 95.9995 13.2049 95.853 12.4644C95.7065 11.7238 95.5071 11.085 95.2548 10.5479C95.0025 10.0026 94.7177 9.55094 94.4003 9.19287C94.0829 8.82666 93.7615 8.52962 93.436 8.30176C93.1105 8.06576 92.7971 7.89079 92.496 7.77686C92.2031 7.65479 91.9508 7.56934 91.7392 7.52051C91.7229 7.68327 91.7066 7.92334 91.6904 8.24072C91.6741 8.55811 91.6537 8.98942 91.6293 9.53467C91.6131 10.0799 91.5927 10.7594 91.5683 11.5732C91.5439 12.3789 91.5154 13.3514 91.4828 14.4907C91.4584 15.63 91.43 16.9525 91.3974 18.458C91.373 19.9554 91.3445 21.6685 91.312 23.5972H94.3149V24.0488H83.8901V23.5972Z" fill="#0094FF"/>
<path d="M109.708 19.52C109.708 20.0815 109.61 20.6064 109.415 21.0947C109.228 21.5749 108.971 22.0184 108.646 22.4253C108.329 22.8241 107.962 23.1821 107.547 23.4995C107.14 23.8088 106.713 24.0692 106.266 24.2808C105.826 24.5005 105.387 24.6673 104.947 24.7812C104.508 24.8952 104.101 24.9521 103.727 24.9521H103.604C103.23 24.944 102.831 24.883 102.408 24.769C101.993 24.6551 101.578 24.4883 101.163 24.2686C100.756 24.057 100.366 23.7925 99.9911 23.4751C99.6249 23.1577 99.2994 22.7874 99.0146 22.3643C98.7298 21.9329 98.5019 21.4528 98.331 20.9238C98.1601 20.3867 98.0746 19.7967 98.0746 19.1538C98.0746 18.4946 98.1764 17.8924 98.3798 17.3472C98.5833 16.7938 98.8478 16.3014 99.1733 15.8701C99.5069 15.4388 99.8813 15.0645 100.296 14.7471C100.72 14.4297 101.143 14.1652 101.566 13.9536C101.997 13.742 102.408 13.5874 102.799 13.4897C103.198 13.384 103.543 13.3311 103.836 13.3311H103.934C104.43 13.3473 104.919 13.4368 105.399 13.5996C105.879 13.7542 106.331 13.9699 106.754 14.2466C107.185 14.5233 107.58 14.8529 107.938 15.2354C108.304 15.6097 108.617 16.0247 108.878 16.4805C109.138 16.9362 109.342 17.4204 109.488 17.9331C109.635 18.4458 109.708 18.9748 109.708 19.52ZM105.802 19.3247C105.802 19.1213 105.802 18.8405 105.802 18.4824C105.802 18.1243 105.785 17.7419 105.753 17.335C105.728 16.9199 105.68 16.5008 105.606 16.0776C105.533 15.6545 105.423 15.272 105.277 14.9302C105.13 14.5884 104.939 14.3117 104.703 14.1001C104.475 13.8804 104.186 13.7705 103.836 13.7705C103.169 13.7705 102.64 14.2262 102.249 15.1377C101.867 16.0492 101.676 17.4285 101.676 19.2759C101.676 20.1955 101.712 20.9849 101.786 21.644C101.867 22.3032 101.989 22.8444 102.152 23.2676C102.315 23.6908 102.526 24 102.787 24.1953C103.047 24.3988 103.36 24.5005 103.727 24.5005H103.836C104.186 24.4842 104.475 24.3743 104.703 24.1709C104.939 23.9674 105.13 23.6582 105.277 23.2432C105.431 22.82 105.545 22.2869 105.619 21.644C105.7 21.0011 105.761 20.228 105.802 19.3247Z" fill="#0094FF"/>
<path d="M122.721 14.3198L122.415 23.646L123.685 23.5239L123.734 23.9756L118.985 24.4028L119.01 22.4009C118.871 22.702 118.729 22.9665 118.582 23.1943C118.436 23.4222 118.285 23.6216 118.131 23.7925C117.984 23.9552 117.838 24.0936 117.691 24.2075C117.545 24.3296 117.407 24.4272 117.276 24.5005C116.967 24.6795 116.662 24.7812 116.361 24.8057C115.653 24.8057 115.034 24.6632 114.505 24.3784C113.976 24.1017 113.537 23.7314 113.187 23.2676C112.837 22.8037 112.573 22.2788 112.393 21.6929C112.223 21.0988 112.137 20.4925 112.137 19.874L112.393 14.6738L110.941 14.6494V14.1978L116.263 14.271C116.084 15.7603 115.946 17.0176 115.848 18.043C115.759 19.0602 115.693 19.8862 115.653 20.521C115.604 21.2697 115.575 21.8719 115.567 22.3276C115.567 22.7508 115.6 23.0926 115.665 23.353C115.73 23.6134 115.816 23.8169 115.921 23.9634C116.027 24.1099 116.141 24.2075 116.263 24.2563C116.385 24.3133 116.503 24.3459 116.617 24.354C116.788 24.3133 116.975 24.2319 117.179 24.1099C117.39 23.9878 117.602 23.8006 117.813 23.5483C118.033 23.2879 118.245 22.9502 118.448 22.5352C118.652 22.1201 118.839 21.6074 119.01 20.9971L119.095 14.7471L117.289 14.7227V14.271L122.721 14.3198Z" fill="#0094FF"/>
<path d="M130.155 16.2485C130.399 15.7684 130.659 15.39 130.936 15.1133C131.213 14.8366 131.469 14.6209 131.705 14.4663C131.974 14.2954 132.246 14.1733 132.523 14.1001C132.865 14.0675 133.158 14.1001 133.402 14.1978C133.654 14.2873 133.858 14.4215 134.012 14.6006C134.175 14.7796 134.293 14.9912 134.366 15.2354C134.439 15.4795 134.476 15.7358 134.476 16.0044C134.476 16.2648 134.448 16.5293 134.391 16.7979C134.342 17.0664 134.273 17.3228 134.183 17.5669C134.102 17.811 134 18.0348 133.878 18.2383C133.764 18.4417 133.646 18.6045 133.524 18.7266H133.548C133.312 18.9788 133.088 19.1538 132.877 19.2515C132.665 19.3491 132.458 19.3979 132.254 19.3979C131.888 19.3979 131.591 19.284 131.363 19.0562C131.135 18.8283 131.021 18.519 131.021 18.1284C131.021 17.8273 131.091 17.4977 131.229 17.1396C131.367 16.7816 131.599 16.452 131.925 16.1509C132.136 15.9718 132.356 15.8254 132.584 15.7114C132.779 15.6138 132.999 15.5365 133.243 15.4795C133.487 15.4225 133.731 15.4388 133.976 15.5283C133.91 15.2191 133.768 14.9668 133.548 14.7715C133.329 14.5762 133.003 14.5029 132.572 14.5518C132.262 14.6169 131.961 14.7593 131.668 14.979C131.416 15.1662 131.152 15.4469 130.875 15.8213C130.606 16.1875 130.374 16.688 130.179 17.3228L130.301 23.7803L132.401 23.7192V24.1709L124.881 24.3296V23.8779L126.505 23.8535L126.602 14.8447L125.272 14.7715V14.3198L130.13 14.5273L130.155 16.2485Z" fill="#0094FF"/>
<path d="M5.55806 7.20881C5.66825 7.31508 5.81319 7.38508 5.9738 7.39978L6.00218 7.40568L7.63436 7.32291C7.28374 7.65395 6.94143 8.01926 6.60895 8.41735C4.00818 11.5348 4.58603 16.8572 4.612 17.0845C4.64531 17.3621 4.84068 17.5908 5.11099 17.6667C5.37787 17.7402 5.67024 17.6437 5.83621 17.4287C6.10309 17.0894 8.44921 14.0704 8.56867 12.6287C8.57259 12.5852 8.57602 12.5411 8.57946 12.4965L8.61374 12.497C8.8238 12.497 9.01918 12.4029 9.14798 12.2414L10.4216 10.6665C10.502 10.5657 10.5514 10.4482 10.5671 10.3257C10.5857 10.3145 10.6033 10.3027 10.62 10.29C10.6733 10.2509 11.7644 9.43896 12.5058 8.09915C14.1536 10.0247 18.9531 16.2741 19.1103 23.9025C19.1156 24.1552 19.2577 24.3844 19.4942 24.5064C19.6617 24.5887 20.5559 25 21.7081 25C22.4495 25 23.1434 24.8301 23.7702 24.4956C24.0415 24.3512 24.185 24.0402 24.1183 23.7405C24.0086 23.2455 21.5175 12.2435 15.3646 7.67365C15.51 7.64672 15.6026 7.62419 15.6285 7.61732C15.651 7.61141 15.6731 7.60509 15.6946 7.59678C15.8013 7.6619 15.9257 7.69816 16.053 7.69816H18.075C18.2968 7.69816 18.5005 7.59388 18.6313 7.41562C18.667 7.44062 18.7033 7.46605 18.7395 7.49008C19.904 8.28096 23.4851 8.37151 24.1614 8.38036L24.2133 8.38235C24.4827 8.38235 24.7192 8.22469 24.8357 7.96119C24.9434 7.70407 24.8866 7.40978 24.6917 7.21194C24.5502 7.06796 21.4891 3.98632 17.9158 3.40997C19.289 3.26599 21.5733 2.22341 22.0464 2.00207C22.3016 1.88261 22.4568 1.62405 22.4421 1.3459C22.4289 1.06776 22.2507 0.826361 21.9788 0.727923C21.7635 0.653281 19.8096 0 17.6085 0C16.2495 0 15.0679 0.24977 14.0964 0.742864C11.9716 1.82165 11.0147 3.06206 10.5985 3.82601C9.82921 3.53804 8.67302 3.27165 7.08494 3.32454C3.48671 3.44991 0.307594 6.97669 0.172949 7.1285C-0.0121792 7.33857 -0.0523014 7.63581 0.0701136 7.88703C0.186685 8.12499 0.424165 8.2768 0.733636 8.27096C1.35752 8.2303 4.52193 7.9889 5.52824 7.22887C5.538 7.22447 5.54782 7.21664 5.55806 7.20881Z" fill="#0094FF"/>
</svg>
