<svg width="24" height="19" viewBox="0 0 24 19" fill="none" xmlns="http://www.w3.org/2000/svg">
<path d="M3.71422 11.5714V13.8571C3.72336 15.464 4.48222 15.2143 5.0445 14.732L8.28564 11.8057V13.2857C8.28564 14.6743 8.60564 15 9.99993 15H15.1428C15.1428 15 18.1194 18.5 18.1428 18.4766C18.5714 19 19.7319 18.8217 19.7142 17.8571V15H21.4285C22.8285 15 23.1428 14.652 23.1428 13.2857V4.71429C23.1428 3.34286 22.8056 3 21.4285 3H15.7142V1.85715C15.7142 0.445718 15.4514 0.14286 13.9999 0.14286H1.99993C0.651359 0.14286 0.285645 0.434289 0.285645 1.85715V9.28572C0.285645 10.6794 0.59993 11.5714 1.99993 11.5714H3.71422ZM17.9999 13.2857V15.9834L15.7142 13.2857H10.5714C10.1428 13.2857 9.99993 13.1314 9.99993 12.7143V5.28572C9.99993 4.90286 10.1771 4.71429 10.5714 4.71429H20.8571C21.2508 4.71429 21.4285 4.92572 21.4285 5.25143V12.7143C21.4285 13.1263 21.2234 13.2857 20.8571 13.2857H17.9999Z" fill="#E0E0E0"/>
</svg>
