<svg width="21" height="20" viewBox="0 0 21 20" fill="none" xmlns="http://www.w3.org/2000/svg">
<path d="M12.0156 12.4844L15.4844 9.01562L12.0156 5.5V7.98438H7C6.71875 7.98438 6.48438 8.09375 6.29688 8.3125C6.10938 8.5 6.01562 8.73438 6.01562 9.01562V13H7.98438V10H12.0156V12.4844ZM19.7031 9.29688C20.1406 9.79688 20.1406 10.2656 19.7031 10.7031L10.7031 19.7031C10.5156 19.8906 10.2812 19.9844 10 19.9844C9.71875 19.9844 9.48438 19.8906 9.29688 19.7031L0.296875 10.7031C0.109375 10.5156 0.015625 10.2812 0.015625 10C0.015625 9.71875 0.109375 9.48438 0.296875 9.29688L9.29688 0.296875C9.48438 0.109375 9.71875 0.015625 10 0.015625C10.2812 0.015625 10.5156 0.109375 10.7031 0.296875L19.7031 9.29688Z" fill="#E0E0E0"/>
</svg>
