<svg width="18" height="18" viewBox="0 0 18 18" fill="none" xmlns="http://www.w3.org/2000/svg">
<path d="M4.21875 9.00001C4.21875 8.1082 4.46446 7.27278 4.89132 6.55746V3.52319H1.85706C0.652781 5.08722 0 6.99336 0 9.00001C0 11.0067 0.652781 12.9128 1.85706 14.4768H4.89132V11.4426C4.46446 10.7272 4.21875 9.89182 4.21875 9.00001Z" fill="#FBBD00"/>
<path d="M9 13.7812L6.89062 15.8906L9 18C11.0067 18 12.9128 17.3472 14.4768 16.1429V13.1119H11.4458C10.7242 13.5403 9.88527 13.7812 9 13.7812Z" fill="#0F9D58"/>
<path d="M4.89134 11.4426L1.85707 14.4768C2.0955 14.7865 2.35513 15.083 2.63606 15.364C4.33594 17.0638 6.59603 18 9.00001 18V13.7813C7.25542 13.7813 5.72637 12.8419 4.89134 11.4426Z" fill="#31AA52"/>
<path d="M18 8.99999C18 8.45243 17.9504 7.90386 17.8526 7.36955L17.7735 6.93716H9V11.1559H13.2698C12.8552 11.9807 12.2176 12.6536 11.4457 13.1119L14.4768 16.143C14.7864 15.9045 15.083 15.6449 15.3639 15.364C17.0638 13.6641 18 11.404 18 8.99999Z" fill="#3C79E6"/>
<path d="M12.3809 5.61913L12.7537 5.992L15.7369 3.00892L15.364 2.63605C13.6641 0.936176 11.404 0 9 0L6.89062 2.10938L9 4.21875C10.2771 4.21875 11.4778 4.71607 12.3809 5.61913Z" fill="#CF2D48"/>
<path d="M8.99999 4.21875V0C6.59601 0 4.33592 0.936176 2.63601 2.63602C2.35508 2.91695 2.09545 3.21349 1.85702 3.52318L4.89128 6.55745C5.72635 5.15812 7.2554 4.21875 8.99999 4.21875Z" fill="#EB4132"/>
</svg>
