<svg width="104" height="19" viewBox="0 0 104 19" fill="none" xmlns="http://www.w3.org/2000/svg">
<path d="M0.680603 0.971191H7.82172C8.17979 0.971191 8.58262 0.97526 9.03021 0.983398C9.48594 0.991536 9.96202 1.01595 10.4584 1.05664C10.9549 1.08919 11.4594 1.14209 11.9721 1.21533C12.4929 1.28044 12.9975 1.37402 13.4858 1.49609C13.9741 1.61003 14.4298 1.75651 14.853 1.93555C15.2843 2.10645 15.6586 2.31396 15.976 2.55811C16.3015 2.80225 16.5579 3.09115 16.7451 3.4248C16.9322 3.75033 17.0258 4.12467 17.0258 4.54785C17.0258 5.12565 16.8671 5.64242 16.5497 6.09814C16.2324 6.55387 15.8051 6.95264 15.268 7.29443C14.739 7.62809 14.1246 7.91292 13.4247 8.14893C12.7249 8.37679 11.9925 8.55176 11.2275 8.67383C12.0413 8.80404 12.7574 8.9668 13.3759 9.16211C13.9944 9.35742 14.5315 9.57715 14.9872 9.82129C15.4511 10.0573 15.8377 10.3055 16.1469 10.5659C16.4643 10.8263 16.7247 11.0827 16.9282 11.335C17.4083 11.929 17.6809 12.5597 17.746 13.2271C17.746 13.9676 17.6118 14.6064 17.3432 15.1436C17.0828 15.6807 16.7288 16.1364 16.2812 16.5107C15.8417 16.877 15.3331 17.174 14.7553 17.4019C14.1775 17.6297 13.5753 17.8088 12.9487 17.939C12.322 18.061 11.6913 18.1424 11.0566 18.1831C10.4218 18.2238 9.82774 18.2441 9.27435 18.2441C9.0058 18.2441 8.75759 18.2441 8.52972 18.2441C8.30186 18.2523 8.04551 18.2523 7.76068 18.2441C7.47585 18.2441 7.13405 18.2401 6.73529 18.2319C6.34467 18.2238 5.85232 18.2075 5.25824 18.1831C4.6723 18.1668 3.96023 18.1343 3.12201 18.0854C2.29193 18.0448 1.28689 17.9919 0.106873 17.9268L0.155701 17.646H3.52484V1.42285H0.680603V0.971191ZM7.93158 8.90576L7.7973 17.7803C8.00889 17.7965 8.23676 17.8047 8.4809 17.8047C8.73317 17.8047 8.99766 17.8047 9.27435 17.8047C9.93353 17.7559 10.5113 17.6419 11.0078 17.4629C11.5123 17.2839 11.9314 17.0194 12.2651 16.6694C12.6069 16.3114 12.8673 15.8556 13.0463 15.3022C13.2335 14.7407 13.3434 14.0571 13.3759 13.2515C13.3759 12.4784 13.2905 11.8192 13.1196 11.2739C12.9568 10.7205 12.6679 10.2689 12.2529 9.91895C11.8378 9.56901 11.2804 9.31266 10.5805 9.1499C9.88064 8.98714 8.99766 8.90576 7.93158 8.90576ZM12.8022 4.75537C12.794 4.76351 12.79 4.69027 12.79 4.53564C12.79 4.37288 12.7696 4.16943 12.7289 3.92529C12.6883 3.68115 12.615 3.41667 12.5092 3.13184C12.4034 2.84701 12.2407 2.58252 12.0209 2.33838C11.8093 2.0861 11.5286 1.87858 11.1786 1.71582C10.8287 1.55306 10.3933 1.47168 9.8725 1.47168C9.52256 1.47168 9.1889 1.46354 8.87152 1.44727C8.56228 1.43099 8.28151 1.42285 8.02924 1.42285L7.93158 8.40527C8.09434 8.40527 8.25303 8.40934 8.40765 8.41748C8.57041 8.42562 8.72504 8.43783 8.87152 8.4541C9.34353 8.4541 9.79926 8.40934 10.2387 8.31982C10.6863 8.23031 11.0891 8.05534 11.4472 7.79492C11.8134 7.53451 12.1145 7.16423 12.3505 6.68408C12.5947 6.1958 12.7452 5.5529 12.8022 4.75537Z" fill="white"/>
<path d="M29.5258 11.8721C29.5258 12.3034 29.3875 12.694 29.1108 13.0439C28.8341 13.3857 28.476 13.6787 28.0366 13.9229C27.6052 14.167 27.121 14.3623 26.5839 14.5088C26.055 14.6471 25.5341 14.7204 25.0214 14.7285C24.9889 14.7285 24.9156 14.7244 24.8017 14.7163C24.6878 14.7082 24.5494 14.6838 24.3867 14.6431C24.2239 14.5942 24.0408 14.521 23.8373 14.4233C23.6339 14.3257 23.4304 14.1833 23.227 13.9961C23.2514 14.7204 23.3165 15.3429 23.4223 15.8638C23.5362 16.3765 23.6827 16.7996 23.8618 17.1333C24.0489 17.4588 24.2646 17.6989 24.5087 17.8535C24.761 18 25.0336 18.0732 25.3266 18.0732C25.4975 18.0732 25.7254 18.0163 26.0102 17.9023C26.3032 17.7884 26.6043 17.6134 26.9135 17.3774C27.2309 17.1414 27.5401 16.8403 27.8412 16.4741C28.1424 16.1079 28.3946 15.6685 28.5981 15.1558L28.9521 14.2524L29.3915 14.3989L29.1962 14.9482C29.0172 15.4284 28.7812 15.8841 28.4882 16.3154C28.1953 16.7467 27.8535 17.1333 27.4628 17.4751C27.0803 17.8088 26.6531 18.0773 26.1811 18.2808C25.7091 18.4923 25.2045 18.6144 24.6674 18.647C23.7315 18.6144 22.9381 18.4476 22.287 18.1465C21.636 17.8454 21.107 17.4629 20.7001 16.999C20.2932 16.5352 19.9962 16.0184 19.809 15.4487C19.63 14.8791 19.5405 14.3053 19.5405 13.7275C19.5405 13.3451 19.5974 12.93 19.7114 12.4824C19.8334 12.0267 20.0084 11.571 20.2363 11.1152C20.4641 10.6514 20.7408 10.2038 21.0663 9.77246C21.4 9.34115 21.7744 8.95866 22.1894 8.625C22.6126 8.29134 23.0724 8.02686 23.5688 7.83154C24.0733 7.62809 24.6145 7.52637 25.1923 7.52637C25.7213 7.54264 26.1933 7.62402 26.6083 7.77051C27.0315 7.90885 27.4018 8.09603 27.7192 8.33203C28.0447 8.5599 28.3214 8.82031 28.5493 9.11328C28.7771 9.40625 28.9643 9.71143 29.1108 10.0288C29.2573 10.3381 29.3631 10.6554 29.4282 10.981C29.4933 11.2983 29.5258 11.5954 29.5258 11.8721ZM24.997 7.97803C24.7366 7.9943 24.4925 8.14079 24.2646 8.41748C24.0449 8.69417 23.8536 9.07259 23.6909 9.55273C23.5362 10.0247 23.4142 10.5822 23.3246 11.2251C23.2351 11.868 23.1904 12.5597 23.1904 13.3003C23.3938 13.5363 23.5973 13.7194 23.8007 13.8496C24.0042 13.9798 24.1913 14.0775 24.3622 14.1426C24.5331 14.1995 24.6756 14.2362 24.7895 14.2524C24.9034 14.2687 24.9726 14.2769 24.997 14.2769C25.3144 14.2687 25.5748 14.1995 25.7783 14.0693C25.9898 13.9391 26.1526 13.7601 26.2665 13.5322C26.3886 13.3044 26.4741 13.0317 26.5229 12.7144C26.5717 12.397 26.5961 12.043 26.5961 11.6523C26.5961 11.1641 26.5636 10.7002 26.4985 10.2607C26.4415 9.81315 26.3479 9.42253 26.2177 9.08887C26.0956 8.74707 25.9329 8.47852 25.7294 8.2832C25.526 8.07975 25.2818 7.97803 24.997 7.97803Z" fill="white"/>
<path d="M35.373 18.4517C34.8766 18.4517 34.3964 18.3866 33.9326 18.2563C33.4687 18.1343 33.0455 17.9593 32.663 17.7314C32.2887 17.4954 31.9672 17.2188 31.6987 16.9014C31.4383 16.5758 31.2633 16.2178 31.1738 15.8271C31.1738 15.5993 31.2063 15.3877 31.2714 15.1924C31.3447 14.9971 31.4423 14.8262 31.5644 14.6797C31.6946 14.5332 31.8452 14.4193 32.0161 14.3379C32.187 14.2484 32.3701 14.2036 32.5654 14.2036C32.8014 14.2036 33.0333 14.2728 33.2612 14.4111C33.489 14.5495 33.6843 14.7611 33.8471 15.0459C33.9773 15.2819 34.0709 15.5179 34.1279 15.7539C34.193 15.9899 34.2418 16.2178 34.2744 16.4375C34.315 16.6572 34.3476 16.8647 34.372 17.0601C34.4046 17.2472 34.4534 17.41 34.5185 17.5483C34.5917 17.6867 34.6935 17.7965 34.8237 17.8779C34.9539 17.9593 35.137 18 35.373 18C35.7555 18 36.0851 17.9634 36.3618 17.8901C36.6384 17.8169 36.8663 17.7152 37.0453 17.585C37.2244 17.4548 37.3546 17.3083 37.436 17.1455C37.5255 16.9827 37.5703 16.8078 37.5703 16.6206C37.5703 16.409 37.5133 16.1934 37.3994 15.9736C37.2854 15.7539 37.1186 15.5505 36.8989 15.3633C36.6791 15.168 36.4024 14.993 36.0688 14.8384C35.7433 14.6838 35.3608 14.5698 34.9213 14.4966C34.4249 14.4152 33.9651 14.2931 33.5419 14.1304C33.1269 13.9676 32.7648 13.752 32.4555 13.4834C32.1463 13.2067 31.9021 12.873 31.7231 12.4824C31.5522 12.0837 31.4667 11.6076 31.4667 11.0542C31.4667 10.5008 31.5888 10.0125 31.8329 9.58936C32.0852 9.15804 32.4067 8.7959 32.7973 8.50293C33.1879 8.20996 33.6274 7.98617 34.1157 7.83154C34.6039 7.67692 35.0882 7.59961 35.5683 7.59961C35.7717 7.59961 36.0078 7.61589 36.2763 7.64844C36.5449 7.67285 36.8175 7.72168 37.0942 7.79492C37.379 7.86816 37.6598 7.96582 37.9365 8.08789C38.2132 8.20996 38.4573 8.36458 38.6689 8.55176C38.8886 8.73893 39.0636 8.96273 39.1938 9.22314C39.324 9.48356 39.3891 9.78467 39.3891 10.1265C39.3891 10.3218 39.3525 10.5049 39.2792 10.6758C39.2141 10.8467 39.1205 10.9972 38.9985 11.1274C38.8845 11.2495 38.7462 11.3472 38.5834 11.4204C38.4288 11.4937 38.2661 11.5303 38.0952 11.5303C37.7045 11.5303 37.4075 11.4448 37.204 11.2739C37.0087 11.103 36.8663 10.8874 36.7768 10.627C36.6873 10.3665 36.6262 10.0898 36.5937 9.79688C36.5693 9.49577 36.5286 9.21501 36.4716 8.95459C36.4147 8.69417 36.3211 8.47852 36.1909 8.30762C36.0688 8.13672 35.8613 8.05127 35.5683 8.05127C35.0149 8.09196 34.5795 8.22624 34.2621 8.4541C33.9529 8.67383 33.7983 8.97087 33.7983 9.34521C33.7983 9.58936 33.8512 9.82943 33.957 10.0654C34.0628 10.2933 34.2133 10.5049 34.4086 10.7002C34.6121 10.8955 34.8562 11.0664 35.1411 11.2129C35.4259 11.3512 35.7433 11.4489 36.0932 11.5059C36.5733 11.5872 37.0331 11.7174 37.4726 11.8965C37.912 12.0755 38.2986 12.3034 38.6323 12.5801C38.9741 12.8568 39.2426 13.1823 39.4379 13.5566C39.6414 13.9229 39.7431 14.3298 39.7431 14.7773C39.7431 15.2249 39.6251 15.6685 39.3891 16.1079C39.1612 16.5474 38.8479 16.9421 38.4492 17.292C38.0504 17.6338 37.5865 17.9105 37.0576 18.1221C36.5286 18.3418 35.9671 18.4517 35.373 18.4517Z" fill="white"/>
<path d="M41.2446 8.60059L42.4531 8.57617C42.4938 7.94954 42.5385 7.26595 42.5873 6.52539C42.6362 5.77669 42.7053 4.94255 42.7949 4.02295H46.6767L46.2739 8.47852L48.4467 8.42969V8.86914L46.225 8.93018C46.1111 10.1346 45.989 11.3472 45.8588 12.5679C45.7368 13.7886 45.6757 15.0418 45.6757 16.3276C45.6757 16.9543 45.7205 17.4303 45.81 17.7559C45.9077 18.0814 46.0704 18.2645 46.2983 18.3052H46.4203C46.8191 18.2563 47.1772 18.0692 47.4946 17.7437C47.6248 17.6053 47.755 17.4303 47.8852 17.2188C48.0154 16.999 48.1293 16.7345 48.227 16.4253C48.3246 16.1079 48.402 15.7376 48.4589 15.3145C48.5159 14.8831 48.5444 14.3867 48.5444 13.8252H48.996C48.996 14.4437 48.9594 14.9889 48.8862 15.4609C48.8211 15.9248 48.7275 16.3317 48.6054 16.6816C48.4833 17.0234 48.345 17.3123 48.1904 17.5483C48.0357 17.7843 47.8771 17.9797 47.7143 18.1343C47.3318 18.4923 46.9005 18.6958 46.4203 18.7446C45.8181 18.7446 45.2932 18.6795 44.8456 18.5493C44.4062 18.4272 44.0278 18.2523 43.7104 18.0244C43.4011 17.8047 43.1448 17.5443 42.9413 17.2432C42.746 16.9339 42.5914 16.6003 42.4775 16.2422C42.3717 15.8841 42.2984 15.5057 42.2578 15.1069C42.2171 14.7082 42.1967 14.3053 42.1967 13.8984C42.1967 13.1416 42.2211 12.3726 42.27 11.5913C42.3188 10.8101 42.3717 9.95557 42.4286 9.02783L41.2446 9.05225V8.60059Z" fill="white"/>
<path d="M52.8901 17.5972H55.7343L55.8076 1.27637H55.5634V1.30078C54.7171 1.36589 53.9521 1.64665 53.2685 2.14307C52.9755 2.35465 52.6907 2.62321 52.414 2.94873C52.1373 3.27425 51.885 3.67708 51.6572 4.15723C51.4374 4.63737 51.2543 5.19889 51.1078 5.8418C50.9614 6.4847 50.88 7.22933 50.8637 8.07568H50.412L50.6074 0.678223L65.6342 1.12988L65.5121 9.05225H65.0605C65.0686 8.06755 64.9995 7.20492 64.853 6.46436C64.7065 5.7238 64.5071 5.08496 64.2548 4.54785C64.0025 4.0026 63.7177 3.55094 63.4003 3.19287C63.0829 2.82666 62.7615 2.52962 62.436 2.30176C62.1105 2.06576 61.7971 1.89079 61.496 1.77686C61.2031 1.65479 60.9508 1.56934 60.7392 1.52051C60.7229 1.68327 60.7066 1.92334 60.6904 2.24072C60.6741 2.55811 60.6537 2.98942 60.6293 3.53467C60.6131 4.07992 60.5927 4.75944 60.5683 5.57324C60.5439 6.37891 60.5154 7.3514 60.4828 8.49072C60.4584 9.63005 60.43 10.9525 60.3974 12.458C60.373 13.9554 60.3445 15.6685 60.312 17.5972H63.3149V18.0488H52.8901V17.5972Z" fill="white"/>
<path d="M78.7079 13.52C78.7079 14.0815 78.6103 14.6064 78.415 15.0947C78.2278 15.5749 77.9715 16.0184 77.6459 16.4253C77.3286 16.8241 76.9623 17.1821 76.5473 17.4995C76.1404 17.8088 75.7132 18.0692 75.2656 18.2808C74.8261 18.5005 74.3867 18.6673 73.9472 18.7812C73.5078 18.8952 73.1009 18.9521 72.7265 18.9521H72.6044C72.2301 18.944 71.8313 18.883 71.4081 18.769C70.9931 18.6551 70.5781 18.4883 70.163 18.2686C69.7561 18.057 69.3655 17.7925 68.9911 17.4751C68.6249 17.1577 68.2994 16.7874 68.0146 16.3643C67.7298 15.9329 67.5019 15.4528 67.331 14.9238C67.1601 14.3867 67.0746 13.7967 67.0746 13.1538C67.0746 12.4946 67.1764 11.8924 67.3798 11.3472C67.5833 10.7938 67.8478 10.3014 68.1733 9.87012C68.5069 9.4388 68.8813 9.06445 69.2963 8.74707C69.7195 8.42969 70.1427 8.1652 70.5659 7.95361C70.9972 7.74202 71.4081 7.5874 71.7988 7.48975C72.1975 7.38395 72.5434 7.33105 72.8364 7.33105H72.934C73.4304 7.34733 73.9187 7.43685 74.3989 7.59961C74.879 7.75423 75.3307 7.96989 75.7538 8.24658C76.1852 8.52327 76.5799 8.85286 76.9379 9.23535C77.3041 9.6097 77.6175 10.0247 77.8779 10.4805C78.1383 10.9362 78.3417 11.4204 78.4882 11.9331C78.6347 12.4458 78.7079 12.9748 78.7079 13.52ZM74.8017 13.3247C74.8017 13.1213 74.8017 12.8405 74.8017 12.4824C74.8017 12.1243 74.7854 11.7419 74.7529 11.335C74.7285 10.9199 74.6796 10.5008 74.6064 10.0776C74.5331 9.65446 74.4233 9.27197 74.2768 8.93018C74.1303 8.58838 73.9391 8.31169 73.7031 8.1001C73.4752 7.88037 73.1863 7.77051 72.8364 7.77051C72.169 7.77051 71.6401 8.22624 71.2495 9.1377C70.867 10.0492 70.6757 11.4285 70.6757 13.2759C70.6757 14.1955 70.7123 14.9849 70.7856 15.644C70.867 16.3032 70.989 16.8444 71.1518 17.2676C71.3146 17.6908 71.5261 18 71.7866 18.1953C72.047 18.3988 72.3603 18.5005 72.7265 18.5005H72.8364C73.1863 18.4842 73.4752 18.3743 73.7031 18.1709C73.9391 17.9674 74.1303 17.6582 74.2768 17.2432C74.4314 16.82 74.5453 16.2869 74.6186 15.644C74.7 15.0011 74.761 14.228 74.8017 13.3247Z" fill="white"/>
<path d="M91.7206 8.31982L91.4155 17.646L92.685 17.5239L92.7338 17.9756L87.9853 18.4028L88.0097 16.4009C87.8714 16.702 87.7289 16.9665 87.5825 17.1943C87.436 17.4222 87.2854 17.6216 87.1308 17.7925C86.9843 17.9552 86.8378 18.0936 86.6913 18.2075C86.5449 18.3296 86.4065 18.4272 86.2763 18.5005C85.9671 18.6795 85.6619 18.7812 85.3608 18.8057C84.6528 18.8057 84.0343 18.6632 83.5053 18.3784C82.9763 18.1017 82.5369 17.7314 82.187 17.2676C81.837 16.8037 81.5725 16.2788 81.3935 15.6929C81.2226 15.0988 81.1371 14.4925 81.1371 13.874L81.3935 8.67383L79.9409 8.64941V8.19775L85.2631 8.271C85.0841 9.76025 84.9457 11.0176 84.8481 12.043C84.7586 13.0602 84.6935 13.8862 84.6528 14.521C84.6039 15.2697 84.5755 15.8719 84.5673 16.3276C84.5673 16.7508 84.5999 17.0926 84.665 17.353C84.7301 17.6134 84.8155 17.8169 84.9213 17.9634C85.0271 18.1099 85.1411 18.2075 85.2631 18.2563C85.3852 18.3133 85.5032 18.3459 85.6171 18.354C85.788 18.3133 85.9752 18.2319 86.1786 18.1099C86.3902 17.9878 86.6018 17.8006 86.8134 17.5483C87.0331 17.2879 87.2447 16.9502 87.4482 16.5352C87.6516 16.1201 87.8388 15.6074 88.0097 14.9971L88.0952 8.74707L86.2885 8.72266V8.271L91.7206 8.31982Z" fill="white"/>
<path d="M99.1547 10.2485C99.3989 9.76839 99.6593 9.38997 99.936 9.11328C100.213 8.83659 100.469 8.62093 100.705 8.46631C100.974 8.29541 101.246 8.17334 101.523 8.1001C101.865 8.06755 102.158 8.1001 102.402 8.19775C102.654 8.28727 102.858 8.42155 103.012 8.60059C103.175 8.77962 103.293 8.99121 103.366 9.23535C103.439 9.47949 103.476 9.73584 103.476 10.0044C103.476 10.2648 103.448 10.5293 103.391 10.7979C103.342 11.0664 103.273 11.3228 103.183 11.5669C103.102 11.811 103 12.0348 102.878 12.2383C102.764 12.4417 102.646 12.6045 102.524 12.7266H102.548C102.312 12.9788 102.088 13.1538 101.877 13.2515C101.665 13.3491 101.458 13.3979 101.254 13.3979C100.888 13.3979 100.591 13.284 100.363 13.0562C100.135 12.8283 100.021 12.519 100.021 12.1284C100.021 11.8273 100.091 11.4977 100.229 11.1396C100.367 10.7816 100.599 10.452 100.925 10.1509C101.136 9.97184 101.356 9.82536 101.584 9.71143C101.779 9.61377 101.999 9.53646 102.243 9.47949C102.487 9.42253 102.731 9.4388 102.976 9.52832C102.91 9.21908 102.768 8.9668 102.548 8.77148C102.329 8.57617 102.003 8.50293 101.572 8.55176C101.262 8.61686 100.961 8.75928 100.668 8.979C100.416 9.16618 100.152 9.44694 99.8749 9.82129C99.6064 10.1875 99.3745 10.688 99.1791 11.3228L99.3012 17.7803L101.401 17.7192V18.1709L93.8813 18.3296V17.8779L95.5048 17.8535L95.6025 8.84473L94.2719 8.77148V8.31982L99.1303 8.52734L99.1547 10.2485Z" fill="white"/>
</svg>
