<svg width="24" height="18" viewBox="0 0 24 18" fill="none" xmlns="http://www.w3.org/2000/svg">
<path d="M11.0156 12.9844V9.98438H0.984375V8.01562H11.0156V5.01562L15 9L11.0156 12.9844ZM21 0C21.5312 0 22 0.203125 22.4062 0.609375C22.8125 0.984375 23.0156 1.45312 23.0156 2.01562V16.0312C23.0156 16.5625 22.8125 17.0312 22.4062 17.4375C22 17.8125 21.5312 18 21 18H3C2.46875 18 2 17.8125 1.59375 17.4375C1.1875 17.0312 0.984375 16.5625 0.984375 16.0312V12H3V16.0312H21V1.96875H3V6H0.984375V2.01562C0.984375 1.48438 1.1875 1.01562 1.59375 0.609375C2 0.203125 2.46875 0 3 0H21Z" fill="white"/>
</svg>