<svg width="14" height="14" viewBox="0 0 14 14" fill="none" xmlns="http://www.w3.org/2000/svg">
<path d="M12.9759 9.98431V11.7908C12.9765 11.9585 12.9422 12.1245 12.875 12.2781C12.8078 12.4318 12.7093 12.5697 12.5857 12.6831C12.4621 12.7965 12.3162 12.8828 12.1574 12.9365C11.9985 12.9903 11.8302 13.0102 11.6631 12.9951C9.81019 12.7938 8.0303 12.1606 6.46649 11.1465C5.01157 10.222 3.77804 8.98843 2.85352 7.53351C1.83586 5.96259 1.20254 4.17405 1.00489 2.31277C0.98984 2.14625 1.00963 1.97843 1.063 1.81998C1.11636 1.66153 1.20214 1.51592 1.31486 1.39244C1.42758 1.26896 1.56478 1.1703 1.71772 1.10274C1.87066 1.03519 2.03599 1.00022 2.20319 1.00006H4.00967C4.30191 0.997182 4.58521 1.10067 4.80679 1.29122C5.02837 1.48178 5.17309 1.74641 5.214 2.03578C5.29024 2.61389 5.43165 3.18152 5.63551 3.72785C5.71653 3.94338 5.73406 4.17761 5.68603 4.4028C5.63801 4.62799 5.52643 4.83469 5.36454 4.99841L4.59979 5.76315C5.457 7.27069 6.70522 8.51891 8.21276 9.37612L8.9775 8.61138C9.14122 8.44948 9.34793 8.33791 9.57311 8.28988C9.7983 8.24185 10.0325 8.25939 10.2481 8.3404C10.7944 8.54427 11.362 8.68567 11.9401 8.76192C12.2326 8.80318 12.4998 8.95052 12.6908 9.1759C12.8817 9.40128 12.9832 9.68899 12.9759 9.98431Z" stroke="#0094FF" stroke-linecap="round" stroke-linejoin="round"/>
</svg>
