<svg width="25" height="25" viewBox="0 0 25 25" fill="none" xmlns="http://www.w3.org/2000/svg">
<path d="M5.55806 7.20881C5.66825 7.31508 5.81319 7.38508 5.9738 7.39978L6.00218 7.40568L7.63436 7.32291C7.28374 7.65395 6.94143 8.01926 6.60895 8.41735C4.00818 11.5348 4.58603 16.8572 4.612 17.0845C4.64531 17.3621 4.84068 17.5908 5.11099 17.6667C5.37787 17.7402 5.67024 17.6437 5.83621 17.4287C6.10309 17.0894 8.44921 14.0704 8.56867 12.6287C8.57259 12.5852 8.57602 12.5411 8.57946 12.4965L8.61374 12.497C8.8238 12.497 9.01918 12.4029 9.14798 12.2414L10.4216 10.6665C10.502 10.5657 10.5514 10.4482 10.5671 10.3257C10.5857 10.3145 10.6033 10.3027 10.62 10.29C10.6733 10.2509 11.7644 9.43896 12.5058 8.09915C14.1536 10.0247 18.9531 16.2741 19.1103 23.9025C19.1156 24.1552 19.2577 24.3844 19.4942 24.5064C19.6617 24.5887 20.5559 25 21.7081 25C22.4495 25 23.1434 24.8301 23.7702 24.4956C24.0415 24.3512 24.185 24.0402 24.1183 23.7405C24.0086 23.2455 21.5175 12.2435 15.3646 7.67365C15.51 7.64672 15.6026 7.62419 15.6285 7.61732C15.651 7.61141 15.6731 7.60509 15.6946 7.59678C15.8013 7.6619 15.9257 7.69816 16.053 7.69816H18.075C18.2968 7.69816 18.5005 7.59388 18.6313 7.41562C18.667 7.44062 18.7033 7.46605 18.7395 7.49008C19.904 8.28096 23.4851 8.37151 24.1614 8.38036L24.2133 8.38235C24.4827 8.38235 24.7192 8.22469 24.8357 7.96119C24.9434 7.70407 24.8866 7.40978 24.6917 7.21194C24.5502 7.06796 21.4891 3.98632 17.9158 3.40997C19.289 3.26599 21.5733 2.22341 22.0464 2.00207C22.3016 1.88261 22.4568 1.62405 22.4421 1.3459C22.4289 1.06776 22.2507 0.826361 21.9788 0.727923C21.7635 0.653281 19.8096 0 17.6085 0C16.2495 0 15.0679 0.24977 14.0964 0.742864C11.9716 1.82165 11.0147 3.06206 10.5985 3.82601C9.82921 3.53804 8.67302 3.27165 7.08494 3.32454C3.48671 3.44991 0.307594 6.97669 0.172949 7.1285C-0.0121792 7.33857 -0.0523014 7.63581 0.0701136 7.88703C0.186685 8.12499 0.424165 8.2768 0.733636 8.27096C1.35752 8.2303 4.52193 7.9889 5.52824 7.22887C5.538 7.22447 5.54782 7.21664 5.55806 7.20881Z" fill="white"/>
</svg>
