<svg width="142" height="110" viewBox="0 0 142 110" fill="none" xmlns="http://www.w3.org/2000/svg">
<path d="M6.25 0H25.293C26.2478 0 27.3221 0.0108507 28.5156 0.0325521C29.7309 0.0542535 31.0004 0.119358 32.3242 0.227865C33.648 0.31467 34.9935 0.455729 36.3607 0.651042C37.7496 0.824653 39.0951 1.07422 40.3971 1.39974C41.6992 1.70356 42.9145 2.09418 44.043 2.57161C45.1931 3.02734 46.1914 3.58073 47.0378 4.23177C47.9058 4.88281 48.5894 5.65321 49.0885 6.54297C49.5877 7.41102 49.8372 8.40929 49.8372 9.53776C49.8372 11.0786 49.4141 12.4566 48.5677 13.6719C47.7214 14.8872 46.582 15.9505 45.1497 16.862C43.7392 17.7517 42.1007 18.5113 40.2344 19.1406C38.3681 19.7483 36.4149 20.2148 34.375 20.5404C36.5451 20.8876 38.4549 21.3216 40.1042 21.8424C41.7535 22.3633 43.1858 22.9492 44.401 23.6003C45.638 24.2296 46.6688 24.8915 47.4935 25.5859C48.3398 26.2804 49.0343 26.964 49.5768 27.6367C50.8572 29.2209 51.5842 30.9028 51.7578 32.6823C51.7578 34.6571 51.3997 36.3607 50.6836 37.793C49.9892 39.2253 49.0451 40.4405 47.8516 41.4388C46.6797 42.4154 45.3234 43.2075 43.7826 43.8151C42.2418 44.4227 40.6359 44.9002 38.9648 45.2474C37.2938 45.5729 35.612 45.7899 33.9193 45.8984C32.2266 46.0069 30.6424 46.0612 29.1667 46.0612C28.4505 46.0612 27.7886 46.0612 27.181 46.0612C26.5734 46.0829 25.8898 46.0829 25.1302 46.0612C24.3707 46.0612 23.4592 46.0504 22.3958 46.0286C21.3542 46.0069 20.0412 45.9635 18.457 45.8984C16.8945 45.855 14.9957 45.7682 12.7604 45.638C10.5469 45.5295 7.86675 45.3885 4.72005 45.2148L4.85026 44.4661H13.8346V1.20443H6.25V0ZM25.5859 21.1589L25.2279 44.8242C25.7921 44.8676 26.3997 44.8893 27.0508 44.8893C27.7235 44.8893 28.4288 44.8893 29.1667 44.8893C30.9245 44.7591 32.4653 44.4553 33.7891 43.9779C35.1345 43.5004 36.2522 42.7951 37.1419 41.862C38.0534 40.9071 38.7478 39.6918 39.2253 38.2161C39.7244 36.7188 40.0174 34.8958 40.1042 32.7474C40.1042 30.6858 39.8763 28.928 39.4206 27.474C38.9865 25.9983 38.2161 24.7938 37.1094 23.8607C36.0026 22.9275 34.5161 22.2439 32.6497 21.8099C30.7834 21.3759 28.4288 21.1589 25.5859 21.1589ZM38.5742 10.0911C38.5525 10.1128 38.5417 9.91753 38.5417 9.50521C38.5417 9.07118 38.4874 8.52865 38.3789 7.8776C38.2704 7.22656 38.0751 6.52127 37.793 5.76172C37.5109 5.00217 37.0768 4.29688 36.4909 3.64583C35.9267 2.97309 35.178 2.4197 34.2448 1.98568C33.3116 1.55165 32.1506 1.33464 30.7617 1.33464C29.8286 1.33464 28.9388 1.31293 28.0924 1.26953C27.2678 1.22613 26.5191 1.20443 25.8464 1.20443L25.5859 19.8242C26.02 19.8242 26.4431 19.8351 26.8555 19.8568C27.2895 19.8785 27.7018 19.911 28.0924 19.9544C29.3511 19.9544 30.5664 19.8351 31.7383 19.5964C32.9319 19.3576 34.0061 18.8911 34.9609 18.1966C35.9375 17.5022 36.7405 16.5148 37.3698 15.2344C38.0208 13.9323 38.4223 12.2179 38.5742 10.0911Z" fill="white"/>
<path d="M83.1706 29.069C83.1706 30.2192 82.8017 31.2609 82.0638 32.194C81.326 33.1055 80.3711 33.8867 79.1992 34.5378C78.049 35.1888 76.7578 35.7096 75.3255 36.1003C73.9149 36.4692 72.526 36.6645 71.1589 36.6862C71.0721 36.6862 70.8767 36.6754 70.5729 36.6536C70.2691 36.6319 69.9002 36.5668 69.4661 36.4583C69.0321 36.3281 68.5438 36.1328 68.0013 35.8724C67.4588 35.612 66.9162 35.2322 66.3737 34.7331C66.4388 36.6645 66.6124 38.3247 66.8945 39.7135C67.1983 41.0807 67.589 42.2092 68.0664 43.099C68.5655 43.967 69.1406 44.6072 69.7917 45.0195C70.4644 45.4102 71.1914 45.6055 71.9727 45.6055C72.4284 45.6055 73.036 45.4536 73.7956 45.1497C74.5768 44.8459 75.3798 44.3793 76.2044 43.75C77.0508 43.1207 77.8754 42.3177 78.6784 41.3411C79.4813 40.3646 80.1541 39.1927 80.6966 37.8255L81.6406 35.4167L82.8125 35.8073L82.2917 37.2721C81.8142 38.5525 81.1849 39.7678 80.4036 40.918C79.6224 42.0681 78.7109 43.099 77.6693 44.0104C76.6493 44.9002 75.51 45.6163 74.2513 46.1589C72.9926 46.7231 71.6471 47.0486 70.2148 47.1354C67.7192 47.0486 65.6033 46.6037 63.8672 45.8008C62.1311 44.9978 60.7205 43.9779 59.6354 42.7409C58.5504 41.5039 57.7582 40.1259 57.2591 38.6068C56.7817 37.0877 56.543 35.5577 56.543 34.0169C56.543 32.997 56.6949 31.8902 56.9987 30.6966C57.3242 29.4813 57.7908 28.2661 58.3984 27.0508C59.0061 25.8138 59.7439 24.6202 60.612 23.4701C61.5017 22.3199 62.5 21.2999 63.6068 20.4102C64.7352 19.5204 65.9614 18.8151 67.2852 18.2943C68.6306 17.7517 70.0738 17.4805 71.6146 17.4805C73.0252 17.5239 74.2839 17.7409 75.3906 18.1315C76.5191 18.5004 77.5065 18.9996 78.3529 19.6289C79.2209 20.2365 79.9588 20.931 80.5664 21.7122C81.174 22.4935 81.6732 23.3073 82.0638 24.1536C82.4544 24.9783 82.7365 25.8247 82.9102 26.6927C83.0838 27.5391 83.1706 28.3312 83.1706 29.069ZM71.0938 18.6849C70.3993 18.7283 69.7483 19.1189 69.1406 19.8568C68.5547 20.5946 68.0447 21.6037 67.6107 22.8841C67.1983 24.1428 66.8728 25.6293 66.6341 27.3438C66.3954 29.0582 66.276 30.9028 66.276 32.8776C66.8186 33.5069 67.3611 33.9952 67.9036 34.3424C68.4462 34.6897 68.9453 34.9501 69.401 35.1237C69.8568 35.2756 70.2365 35.3733 70.5404 35.4167C70.8442 35.4601 71.0286 35.4818 71.0938 35.4818C71.9401 35.4601 72.6346 35.2756 73.1771 34.9284C73.7413 34.5812 74.1753 34.1037 74.4792 33.4961C74.8047 32.8885 75.0326 32.1615 75.1628 31.3151C75.293 30.4688 75.3581 29.5247 75.3581 28.4831C75.3581 27.181 75.2713 25.944 75.0977 24.7721C74.9457 23.5786 74.6962 22.5369 74.349 21.6471C74.0234 20.7357 73.5894 20.0195 73.0469 19.4987C72.5043 18.9562 71.8533 18.6849 71.0938 18.6849Z" fill="white"/>
<path d="M98.763 46.6146C97.4392 46.6146 96.1589 46.441 94.9219 46.0938C93.6849 45.7682 92.5564 45.3017 91.5365 44.694C90.5382 44.0647 89.681 43.3268 88.9648 42.4805C88.2704 41.6124 87.8038 40.6576 87.5651 39.6159C87.5651 39.0082 87.6519 38.444 87.8255 37.9232C88.0208 37.4023 88.2812 36.9466 88.6068 36.556C88.954 36.1654 89.3555 35.8615 89.8112 35.6445C90.2669 35.4058 90.7552 35.2865 91.276 35.2865C91.9054 35.2865 92.5239 35.4709 93.1315 35.8398C93.7392 36.2088 94.26 36.773 94.694 37.5326C95.0412 38.1619 95.2908 38.7912 95.4427 39.4206C95.6163 40.0499 95.7465 40.6576 95.8333 41.2435C95.9418 41.8294 96.0286 42.3828 96.0938 42.9036C96.1806 43.4028 96.3108 43.8368 96.4844 44.2057C96.6797 44.5747 96.951 44.8676 97.2982 45.0846C97.6454 45.3017 98.1337 45.4102 98.763 45.4102C99.783 45.4102 100.662 45.3125 101.4 45.1172C102.138 44.9219 102.745 44.6506 103.223 44.3034C103.7 43.9562 104.047 43.5655 104.264 43.1315C104.503 42.6975 104.622 42.2309 104.622 41.7318C104.622 41.1675 104.47 40.5924 104.167 40.0065C103.863 39.4206 103.418 38.878 102.832 38.3789C102.246 37.8581 101.508 37.3915 100.618 36.9792C99.7504 36.5668 98.7305 36.263 97.5586 36.0677C96.2348 35.8507 95.0087 35.5252 93.8802 35.0911C92.7734 34.6571 91.8077 34.082 90.9831 33.3659C90.1584 32.628 89.5074 31.7383 89.03 30.6966C88.5742 29.6332 88.3464 28.3637 88.3464 26.888C88.3464 25.4123 88.6719 24.1102 89.3229 22.9818C89.9957 21.8316 90.8529 20.8659 91.8945 20.0846C92.9362 19.3034 94.1081 18.7066 95.4102 18.2943C96.7122 17.8819 98.0035 17.6758 99.2839 17.6758C99.8264 17.6758 100.456 17.7192 101.172 17.806C101.888 17.8711 102.615 18.0013 103.353 18.1966C104.112 18.3919 104.861 18.6523 105.599 18.9779C106.337 19.3034 106.988 19.7157 107.552 20.2148C108.138 20.714 108.605 21.3108 108.952 22.0052C109.299 22.6997 109.473 23.5026 109.473 24.4141C109.473 24.9349 109.375 25.4232 109.18 25.8789C109.006 26.3346 108.757 26.7361 108.431 27.0833C108.127 27.4089 107.758 27.6693 107.324 27.8646C106.912 28.0599 106.478 28.1576 106.022 28.1576C104.98 28.1576 104.188 27.9297 103.646 27.474C103.125 27.0182 102.745 26.4431 102.507 25.7487C102.268 25.0543 102.105 24.3164 102.018 23.5352C101.953 22.7322 101.845 21.9835 101.693 21.2891C101.541 20.5946 101.291 20.0195 100.944 19.5638C100.618 19.1081 100.065 18.8802 99.2839 18.8802C97.8082 18.9887 96.6471 19.3468 95.8008 19.9544C94.9761 20.5404 94.5638 21.3325 94.5638 22.3307C94.5638 22.9818 94.7049 23.622 94.987 24.2513C95.2691 24.8589 95.6706 25.4232 96.1914 25.944C96.7339 26.4648 97.385 26.9206 98.1445 27.3112C98.9041 27.6801 99.7504 27.9405 100.684 28.0924C101.964 28.3095 103.19 28.6567 104.362 29.1341C105.534 29.6115 106.565 30.2192 107.454 30.957C108.366 31.6949 109.082 32.5629 109.603 33.5612C110.145 34.5378 110.417 35.6228 110.417 36.8164C110.417 38.01 110.102 39.1927 109.473 40.3646C108.865 41.5365 108.03 42.589 106.966 43.5221C105.903 44.4336 104.666 45.1714 103.255 45.7357C101.845 46.3216 100.347 46.6146 98.763 46.6146Z" fill="white"/>
<path d="M114.421 20.3451L117.643 20.2799C117.752 18.6089 117.871 16.786 118.001 14.8112C118.132 12.8147 118.316 10.5903 118.555 8.13802H128.906L127.832 20.0195L133.626 19.8893V21.0612L127.702 21.224C127.398 24.4358 127.072 27.6693 126.725 30.9245C126.4 34.1797 126.237 37.5217 126.237 40.9505C126.237 42.6215 126.356 43.8911 126.595 44.7591C126.855 45.6272 127.289 46.1155 127.897 46.224H128.223C129.286 46.0938 130.241 45.5946 131.087 44.7266C131.434 44.3576 131.782 43.8911 132.129 43.3268C132.476 42.7409 132.78 42.0356 133.04 41.2109C133.301 40.3646 133.507 39.3772 133.659 38.2487C133.811 37.0985 133.887 35.7747 133.887 34.2773H135.091C135.091 35.9267 134.993 37.3806 134.798 38.6393C134.625 39.8763 134.375 40.9614 134.049 41.8945C133.724 42.806 133.355 43.5764 132.943 44.2057C132.53 44.8351 132.107 45.3559 131.673 45.7682C130.653 46.7231 129.503 47.2656 128.223 47.3958C126.617 47.3958 125.217 47.2222 124.023 46.875C122.852 46.5495 121.842 46.0829 120.996 45.4753C120.171 44.8893 119.488 44.1949 118.945 43.3919C118.424 42.5673 118.012 41.6775 117.708 40.7227C117.426 39.7678 117.231 38.7587 117.122 37.6953C117.014 36.6319 116.96 35.5577 116.96 34.4727C116.96 32.4544 117.025 30.4036 117.155 28.3203C117.285 26.237 117.426 23.9583 117.578 21.4844L114.421 21.5495V20.3451Z" fill="white"/>
<path d="M6.60807 105.669H14.1927L14.388 62.1471H13.737V62.2122C11.48 62.3859 9.4401 63.1346 7.61719 64.4583C6.83594 65.0226 6.07639 65.7387 5.33854 66.6068C4.60069 67.4748 3.92795 68.549 3.32031 69.8294C2.73438 71.1098 2.24609 72.6072 1.85547 74.3216C1.46484 76.036 1.24783 78.0217 1.20443 80.2786H0L0.520833 60.5521L40.5924 61.7565L40.2669 82.8828H39.0625C39.0842 80.257 38.8997 77.9566 38.5091 75.9818C38.1185 74.007 37.5868 72.3034 36.9141 70.8711C36.2413 69.4171 35.4818 68.2127 34.6354 67.2578C33.7891 66.2812 32.9319 65.4892 32.0638 64.8815C31.1957 64.2522 30.3602 63.7856 29.5573 63.4818C28.776 63.1562 28.1033 62.9284 27.5391 62.7982C27.4957 63.2322 27.4523 63.8724 27.4089 64.7188C27.3655 65.5651 27.3112 66.7153 27.2461 68.1693C27.2027 69.6233 27.1484 71.4353 27.0833 73.6055C27.0182 75.7539 26.9423 78.3472 26.8555 81.3854C26.7904 84.4236 26.7144 87.9501 26.6276 91.9648C26.5625 95.9579 26.4865 100.526 26.3997 105.669H34.4076V106.874H6.60807V105.669Z" fill="white"/>
<path d="M75.4557 94.7969C75.4557 96.2943 75.1953 97.694 74.6745 98.9961C74.1753 100.276 73.4918 101.459 72.6237 102.544C71.7773 103.608 70.8008 104.562 69.694 105.409C68.6089 106.234 67.4696 106.928 66.276 107.492C65.1042 108.078 63.9323 108.523 62.7604 108.827C61.5885 109.131 60.5035 109.283 59.5052 109.283H59.1797C58.1814 109.261 57.1181 109.098 55.9896 108.794C54.8828 108.49 53.776 108.046 52.6693 107.46C51.5842 106.895 50.5425 106.19 49.5443 105.344C48.5677 104.497 47.6997 103.51 46.9401 102.382C46.1806 101.231 45.5729 99.951 45.1172 98.5404C44.6615 97.1081 44.4336 95.5347 44.4336 93.8203C44.4336 92.0625 44.7049 90.4566 45.2474 89.0026C45.7899 87.5269 46.4952 86.214 47.3633 85.0638C48.253 83.9136 49.2513 82.9154 50.3581 82.069C51.4865 81.2227 52.615 80.5174 53.7435 79.9531C54.8937 79.3889 55.9896 78.9766 57.0312 78.7161C58.0946 78.434 59.0169 78.293 59.7982 78.293H60.0586C61.3824 78.3364 62.6845 78.5751 63.9648 79.0091C65.2452 79.4214 66.4497 79.9965 67.5781 80.7344C68.7283 81.4722 69.7808 82.3511 70.7357 83.3711C71.7122 84.3694 72.5477 85.4761 73.2422 86.6914C73.9366 87.9067 74.4792 89.1979 74.8698 90.5651C75.2604 91.9323 75.4557 93.3429 75.4557 94.7969ZM65.0391 94.276C65.0391 93.7335 65.0391 92.9848 65.0391 92.03C65.0391 91.0751 64.9957 90.0551 64.9089 88.9701C64.8438 87.8633 64.7135 86.7457 64.5182 85.6172C64.3229 84.4887 64.03 83.4688 63.6393 82.5573C63.2487 81.6458 62.7387 80.908 62.1094 80.3438C61.5017 79.7578 60.7313 79.4648 59.7982 79.4648C58.0187 79.4648 56.6081 80.6801 55.5664 83.1107C54.5464 85.5412 54.0365 89.2196 54.0365 94.1458C54.0365 96.5981 54.1341 98.7031 54.3294 100.461C54.5464 102.219 54.872 103.662 55.306 104.79C55.74 105.919 56.3043 106.743 56.9987 107.264C57.6931 107.807 58.5286 108.078 59.5052 108.078H59.7982C60.7313 108.035 61.5017 107.742 62.1094 107.199C62.7387 106.657 63.2487 105.832 63.6393 104.725C64.0517 103.597 64.3555 102.175 64.5508 100.461C64.7678 98.7465 64.9306 96.6849 65.0391 94.276Z" fill="white"/>
<path d="M110.156 80.9297L109.342 105.799L112.728 105.474L112.858 106.678L100.195 107.818L100.26 102.479C99.8915 103.282 99.5117 103.987 99.1211 104.595C98.7305 105.203 98.329 105.734 97.9167 106.19C97.526 106.624 97.1354 106.993 96.7448 107.297C96.3542 107.622 95.9852 107.883 95.638 108.078C94.8134 108.556 93.9996 108.827 93.1966 108.892C91.3086 108.892 89.6593 108.512 88.2487 107.753C86.8381 107.015 85.6662 106.027 84.7331 104.79C83.7999 103.553 83.0946 102.154 82.6172 100.591C82.1615 99.007 81.9336 97.3902 81.9336 95.7409L82.6172 81.8737L78.7435 81.8086V80.6042L92.9362 80.7995C92.4588 84.7708 92.0898 88.1237 91.8294 90.8581C91.5907 93.5707 91.4171 95.7734 91.3086 97.4661C91.1784 99.4627 91.1024 101.069 91.0807 102.284C91.0807 103.412 91.1675 104.324 91.3411 105.018C91.5148 105.713 91.7426 106.255 92.0247 106.646C92.3069 107.036 92.6107 107.297 92.9362 107.427C93.2617 107.579 93.5764 107.666 93.8802 107.688C94.3359 107.579 94.8351 107.362 95.3776 107.036C95.9418 106.711 96.5061 106.212 97.0703 105.539C97.6562 104.845 98.2205 103.944 98.763 102.837C99.3056 101.73 99.8047 100.363 100.26 98.7357L100.488 82.069L95.6706 82.0039V80.7995L110.156 80.9297Z" fill="white"/>
<path d="M129.98 86.0729C130.632 84.7925 131.326 83.7834 132.064 83.0456C132.802 82.3077 133.485 81.7326 134.115 81.3203C134.831 80.8646 135.558 80.5391 136.296 80.3438C137.207 80.257 137.988 80.3438 138.639 80.6042C139.312 80.8429 139.855 81.201 140.267 81.6784C140.701 82.1558 141.016 82.7201 141.211 83.3711C141.406 84.0221 141.504 84.7057 141.504 85.4219C141.504 86.1163 141.428 86.8216 141.276 87.5378C141.146 88.2539 140.961 88.9375 140.723 89.5885C140.506 90.2396 140.234 90.8364 139.909 91.3789C139.605 91.9214 139.29 92.3555 138.965 92.681H139.03C138.401 93.3537 137.804 93.8203 137.24 94.0807C136.675 94.3411 136.122 94.4714 135.579 94.4714C134.603 94.4714 133.811 94.1675 133.203 93.5599C132.595 92.9523 132.292 92.1276 132.292 91.0859C132.292 90.283 132.476 89.4041 132.845 88.4492C133.214 87.4944 133.832 86.6155 134.701 85.8125C135.265 85.3351 135.851 84.9445 136.458 84.6406C136.979 84.3802 137.565 84.174 138.216 84.0221C138.867 83.8702 139.518 83.9136 140.169 84.1523C139.996 83.3277 139.616 82.655 139.03 82.1341C138.444 81.6133 137.576 81.418 136.426 81.5482C135.601 81.7218 134.798 82.1016 134.017 82.6875C133.344 83.1866 132.639 83.9353 131.901 84.9336C131.185 85.9102 130.566 87.2448 130.046 88.9375L130.371 106.158L135.97 105.995V107.199L115.918 107.622V106.418L120.247 106.353L120.508 82.3294L116.96 82.1341V80.9297L129.915 81.4831L129.98 86.0729Z" fill="white"/>
</svg>
