<svg width="14" height="19" viewBox="0 0 14 19" fill="none" xmlns="http://www.w3.org/2000/svg">
<path d="M12.2969 9.01562H13.9844C13.9844 10.7031 13.3906 12.1875 12.2031 13.4688C11.0469 14.7188 9.64062 15.4688 7.98438 15.7188V19H6.01562V15.7188C4.35938 15.4688 2.9375 14.7188 1.75 13.4688C0.59375 12.1875 0.015625 10.7031 0.015625 9.01562H1.70312C1.70312 10.4844 2.21875 11.7031 3.25 12.6719C4.3125 13.6094 5.5625 14.0781 7 14.0781C8.4375 14.0781 9.67188 13.6094 10.7031 12.6719C11.7656 11.7031 12.2969 10.4844 12.2969 9.01562ZM9.10938 11.125C8.51562 11.7188 7.8125 12.0156 7 12.0156C6.1875 12.0156 5.48438 11.7188 4.89062 11.125C4.29688 10.5312 4 9.82812 4 9.01562V3.01562C4 2.20312 4.29688 1.5 4.89062 0.90625C5.48438 0.3125 6.1875 0.015625 7 0.015625C7.8125 0.015625 8.51562 0.3125 9.10938 0.90625C9.70312 1.5 10 2.20312 10 3.01562V9.01562C10 9.82812 9.70312 10.5312 9.10938 11.125Z" fill="white" fill-opacity="0.3"/>
</svg>
